<svg xmlns="http://www.w3.org/2000/svg" viewBox="0 0 70.28 90.46" fill="#ffffff"><path fill-rule="evenodd" clip-rule="evenodd" d="M31.54 1.19L25.54 1.96L19.54 4.08L14.54 7.06L9.11 12.35L6.21 16.35L3.11 23.35L1.35 32.35L1.15 42.35L4.54 42.86L63.54 42.95L64.16 43.35L64.31 46.35L63.83 54.35L61.94 61.35L58.72 68.35L55.05 73.35L50.54 77.78L44.54 81.69L38.54 83.77L32.54 84.56L25.54 83.92L19.54 82.46L15.54 80.65L6.54 73.04L3.75 75.35L6.56 79.35L14.54 85.62L23.54 88.73L32.54 89.46L39.54 88.78L46.54 86.48L52.54 82.94L58.85 77.35L63.13 71.35L66.85 63.35L68.80 55.35L69.27 43.35L68.82 35.35L66.93 27.35L62.79 18.35L58.54 12.65L53.54 7.85L47.54 4.12L40.54 1.79L31.54 1.19ZM30.54 6.20L25.54 7.22L21.54 8.96L13.54 15.61L9.20 22.35L7.36 27.35L6.18 33.35L6.54 37.75L63.54 37.70L62.76 31.35L59.80 23.35L55.94 17.35L51.54 12.82L46.51 9.35L40.54 6.98L30.54 6.20Z"></path></svg>