<svg xmlns="http://www.w3.org/2000/svg" viewBox="0 0 353.79 87.69" fill="#ffffff"><path fill-rule="evenodd" clip-rule="evenodd" d="M124.32 1.00L122.99 2.13L123.03 85.13L124.32 85.59L126.65 85.13L126.70 79.13L127.32 77.99L130.32 81.35L137.32 85.36L141.32 86.39L147.32 86.61L154.32 85.29L159.32 82.47L162.57 79.13L165.66 74.13L167.43 69.13L168.68 63.13L168.88 56.13L168.68 48.13L167.48 42.13L164.53 35.13L160.32 29.76L156.32 26.96L149.32 25.01L143.32 24.92L136.32 26.74L131.32 29.89L127.32 34.62L126.69 33.13L126.69 2.13L126.32 1.37L124.32 1.00ZM22.32 25.02L18.32 25.72L13.32 27.88L8.27 32.13L4.83 37.13L2.02 45.13L1.18 52.13L1.00 57.13L1.98 66.13L5.30 75.13L7.12 78.13L11.32 82.30L15.32 84.62L20.32 86.27L30.32 86.34L36.32 84.57L41.55 81.13L44.32 77.97L46.36 74.13L47.75 68.13L46.32 67.11L44.32 67.51L43.62 71.13L41.32 75.81L38.09 79.13L34.32 81.50L30.32 82.64L24.32 82.97L20.32 82.61L15.32 80.55L12.32 78.39L8.88 74.13L5.84 67.13L4.86 62.13L4.82 50.13L6.94 41.13L9.77 36.13L15.32 30.93L20.32 28.81L29.32 28.65L35.32 30.80L39.52 34.13L42.77 39.13L44.32 45.56L47.32 45.72L47.65 44.13L46.76 39.13L44.44 34.13L40.32 29.66L36.32 27.12L32.32 25.68L26.32 24.75L22.32 25.02ZM203.32 25.02L198.32 26.58L194.32 28.85L188.72 35.13L186.06 41.13L185.18 45.13L184.84 53.13L186.32 54.17L228.32 54.29L229.11 56.13L228.76 62.13L227.47 67.13L223.61 74.13L219.77 78.13L215.18 81.13L211.32 82.55L206.32 82.99L197.32 81.42L193.60 79.13L189.32 75.11L187.32 75.99L186.78 77.13L191.47 82.13L197.32 85.45L202.32 86.61L211.32 86.48L217.32 84.59L221.29 82.13L225.75 78.13L228.67 74.13L230.58 70.13L232.58 63.13L232.67 49.13L230.87 42.13L228.62 37.13L222.32 29.76L217.32 26.65L214.32 25.62L208.32 24.64L203.32 25.02ZM323.32 25.04L316.32 26.70L312.32 28.91L307.32 33.54L304.21 38.13L302.07 43.13L300.89 48.13L300.87 63.13L304.07 73.13L307.32 77.88L312.32 82.54L315.32 84.29L321.32 86.25L331.32 86.36L337.32 84.60L341.32 82.39L345.86 78.13L348.74 74.13L350.59 70.13L352.40 63.13L352.49 49.13L350.81 42.13L348.64 37.13L342.32 29.86L337.32 26.82L334.32 25.83L327.32 24.74L323.32 25.04ZM62.32 25.80L61.81 27.13L61.94 69.13L62.94 74.13L65.95 80.13L69.32 83.46L73.32 85.54L77.32 86.50L85.32 86.51L90.32 85.54L95.32 83.37L101.32 77.75L101.75 85.13L102.32 85.59L104.99 85.13L105.56 63.13L105.04 61.13L104.80 26.13L102.32 25.78L101.71 27.13L101.71 64.13L100.59 71.13L97.85 76.13L93.32 80.42L88.32 82.50L81.32 83.19L76.32 82.56L73.32 81.39L70.30 79.13L66.95 74.13L65.99 71.13L65.15 63.13L65.15 27.13L64.32 25.78L62.32 25.80ZM246.32 25.78L245.56 26.13L246.10 29.13L267.85 85.13L271.32 85.59L293.65 29.13L294.26 26.13L291.32 25.78L289.90 28.13L270.32 78.40L269.23 78.13L267.99 75.13L249.40 27.13L248.32 25.78L246.32 25.78ZM141.32 28.74L136.32 30.69L133.32 32.75L128.90 38.13L127.12 42.13L126.95 71.13L132.32 78.47L137.32 81.48L140.32 82.50L146.32 83.12L151.32 82.58L154.32 81.44L158.60 78.13L161.42 74.13L163.59 69.13L165.30 57.13L164.57 46.13L162.81 40.13L160.76 36.13L155.32 30.73L150.32 28.67L141.32 28.74ZM203.32 29.00L197.32 31.80L193.06 36.13L191.15 39.13L189.08 45.13L189.32 50.45L228.63 50.13L227.56 44.13L225.75 40.13L220.20 33.13L212.32 28.94L203.32 29.00ZM321.32 28.89L313.32 33.09L310.32 36.13L306.98 41.13L305.12 46.13L304.06 52.13L303.97 58.13L305.04 65.13L306.88 70.13L309.93 75.13L316.32 80.54L321.32 82.57L326.32 83.11L332.32 82.51L335.32 81.45L340.32 78.27L343.32 75.08L346.35 70.13L348.85 62.13L349.30 55.13L348.64 48.13L345.76 40.13L342.90 36.13L338.32 31.89L331.32 28.73L321.32 28.89Z"></path></svg>